<svg width="367" height="112" viewBox="0 0 367 112" fill="none" xmlns="http://www.w3.org/2000/svg">
<path d="M32.8596 37.3538H40.0596V75.3538H32.8596V37.3538Z" fill="black"/>
<path d="M32.8591 37.3537L38.3563 42.0035L10.1507 75.35L5.5477e-05 75.3538L32.8591 37.3537Z" fill="black"/>
<path d="M84.4639 36.4453C88.7249 36.4453 92.0404 37.5505 94.4102 39.7607C96.8027 41.9482 97.999 45.4688 97.999 50.3223V75H89.9668V51.8262C89.9668 48.8867 89.363 46.6878 88.1553 45.2295C86.9476 43.7484 85.0791 43.0078 82.5498 43.0078C78.8812 43.0078 76.3291 44.1357 74.8936 46.3916C73.4808 48.6475 72.7744 51.9173 72.7744 56.2012V75H64.7422V37.1631H70.9971L72.125 42.29H72.5693C73.3896 40.9684 74.4036 39.8861 75.6113 39.043C76.8418 38.1771 78.209 37.5277 79.7129 37.0947C81.2396 36.6618 82.8232 36.4453 84.4639 36.4453ZM130.545 91.8164C125.418 91.8164 121.487 90.8936 118.753 89.0479C116.019 87.2021 114.651 84.6159 114.651 81.2891C114.651 78.9648 115.381 76.9938 116.839 75.376C118.297 73.7809 120.382 72.6758 123.094 72.0605C122.068 71.6048 121.18 70.8984 120.428 69.9414C119.699 68.9616 119.334 67.8792 119.334 66.6943C119.334 65.2816 119.733 64.0739 120.53 63.0713C121.328 62.0687 122.524 61.1003 124.119 60.166C122.137 59.3229 120.542 57.9557 119.334 56.0645C118.149 54.1504 117.557 51.9059 117.557 49.3311C117.557 46.5967 118.138 44.2725 119.3 42.3584C120.462 40.4215 122.16 38.9518 124.393 37.9492C126.626 36.9238 129.326 36.4111 132.493 36.4111C133.177 36.4111 133.917 36.4567 134.715 36.5479C135.535 36.6162 136.287 36.7074 136.971 36.8213C137.677 36.9124 138.213 37.015 138.577 37.1289H151.668V41.6064L145.242 42.8027C145.857 43.6686 146.347 44.6598 146.712 45.7764C147.076 46.8701 147.259 48.0664 147.259 49.3652C147.259 53.2845 145.903 56.3721 143.191 58.6279C140.503 60.861 136.788 61.9775 132.049 61.9775C130.91 61.932 129.804 61.8408 128.733 61.7041C127.913 62.2054 127.286 62.7637 126.854 63.3789C126.421 63.9714 126.204 64.6436 126.204 65.3955C126.204 66.0107 126.421 66.512 126.854 66.8994C127.286 67.264 127.924 67.5374 128.768 67.7197C129.633 67.902 130.682 67.9932 131.912 67.9932H138.44C142.588 67.9932 145.755 68.8704 147.942 70.625C150.13 72.3796 151.224 74.9544 151.224 78.3496C151.224 82.6562 149.446 85.9717 145.892 88.2959C142.337 90.6429 137.221 91.8164 130.545 91.8164ZM130.853 86.1768C133.655 86.1768 136.014 85.9033 137.928 85.3564C139.842 84.8096 141.289 84.0234 142.269 82.998C143.248 81.9954 143.738 80.7992 143.738 79.4092C143.738 78.1787 143.431 77.2331 142.815 76.5723C142.2 75.9115 141.277 75.4557 140.047 75.2051C138.816 74.9544 137.29 74.8291 135.467 74.8291H129.52C128.038 74.8291 126.728 75.057 125.589 75.5127C124.45 75.9912 123.561 76.6748 122.923 77.5635C122.308 78.4521 122 79.5231 122 80.7764C122 82.5081 122.763 83.8411 124.29 84.7754C125.84 85.7096 128.027 86.1768 130.853 86.1768ZM132.425 56.7139C134.772 56.7139 136.515 56.0758 137.654 54.7998C138.794 53.501 139.363 51.6781 139.363 49.3311C139.363 46.779 138.771 44.8649 137.586 43.5889C136.424 42.3128 134.692 41.6748 132.391 41.6748C130.135 41.6748 128.414 42.3242 127.229 43.623C126.067 44.9219 125.486 46.8473 125.486 49.3994C125.486 51.7008 126.067 53.501 127.229 54.7998C128.414 56.0758 130.146 56.7139 132.425 56.7139ZM177.139 75H169.072V21.8164H177.139V75ZM214.196 36.4453C217.569 36.4453 220.463 37.1403 222.878 38.5303C225.293 39.9202 227.15 41.8913 228.449 44.4434C229.748 46.9954 230.397 50.0488 230.397 53.6035V57.9102H205.139C205.23 61.5788 206.21 64.4043 208.078 66.3867C209.969 68.3691 212.613 69.3604 216.008 69.3604C218.423 69.3604 220.588 69.1325 222.502 68.6768C224.439 68.1982 226.433 67.5033 228.483 66.5918V73.1201C226.592 74.0088 224.667 74.6582 222.707 75.0684C220.747 75.4785 218.4 75.6836 215.666 75.6836C211.952 75.6836 208.682 74.9658 205.856 73.5303C203.054 72.0719 200.855 69.9072 199.26 67.0361C197.688 64.165 196.901 60.599 196.901 56.3379C196.901 52.0996 197.619 48.4993 199.055 45.5371C200.49 42.5749 202.507 40.319 205.104 38.7695C207.702 37.2201 210.733 36.4453 214.196 36.4453ZM214.196 42.4951C211.667 42.4951 209.616 43.3154 208.044 44.9561C206.494 46.5967 205.583 49.0007 205.31 52.168H222.536C222.513 50.2767 222.194 48.6019 221.579 47.1436C220.987 45.6852 220.075 44.5459 218.845 43.7256C217.637 42.9053 216.088 42.4951 214.196 42.4951ZM268.856 43.2812H259.662V75H251.63V43.2812H245.443V39.4189L251.63 37.0605V34.4287C251.63 31.2158 252.131 28.6637 253.134 26.7725C254.159 24.8812 255.618 23.5254 257.509 22.7051C259.423 21.862 261.701 21.4404 264.345 21.4404C266.076 21.4404 267.66 21.5885 269.096 21.8848C270.531 22.1582 271.739 22.4772 272.719 22.8418L270.634 28.9258C269.859 28.6751 268.993 28.4473 268.036 28.2422C267.079 28.0143 266.054 27.9004 264.96 27.9004C263.137 27.9004 261.793 28.4701 260.927 29.6094C260.084 30.7487 259.662 32.4121 259.662 34.5996V37.1631H268.856V43.2812ZM318.8 37.1631V75H312.477L311.383 69.9072H310.938C310.141 71.2061 309.127 72.2884 307.896 73.1543C306.666 73.9974 305.299 74.624 303.795 75.0342C302.291 75.4671 300.707 75.6836 299.044 75.6836C296.196 75.6836 293.757 75.2051 291.729 74.248C289.724 73.2682 288.186 71.7643 287.115 69.7363C286.044 67.7083 285.509 65.0879 285.509 61.875V37.1631H293.575V60.3711C293.575 63.3105 294.168 65.5094 295.353 66.9678C296.56 68.4261 298.429 69.1553 300.958 69.1553C303.396 69.1553 305.333 68.654 306.769 67.6514C308.204 66.6488 309.218 65.1676 309.811 63.208C310.426 61.2484 310.733 58.8444 310.733 55.9961V37.1631H318.8ZM348.885 75H340.818V21.8164H348.885V75Z" fill="black"/>
</svg>
